<?xml version="1.0" standalone="no"?>
<!DOCTYPE svg PUBLIC "-//W3C//DTD SVG 20010904//EN"
 "http://www.w3.org/TR/2001/REC-SVG-20010904/DTD/svg10.dtd">
<svg version="1.0" xmlns="http://www.w3.org/2000/svg"
 width="300.000000pt" height="86.000000pt" viewBox="0 0 300.000000 86.000000"
 preserveAspectRatio="xMidYMid meet">
<metadata>
Created by potrace 1.10, written by Peter Selinger 2001-2011
</metadata>
<g transform="translate(0.000000,86.000000) scale(0.100000,-0.100000)"
fill="#000000" stroke="none">
<path d="M1425 814 c-44 -13 -96 -29 -115 -34 -19 -5 -60 -16 -90 -24 -30 -9
-127 -35 -215 -59 -97 -27 -159 -49 -157 -56 3 -14 -15 -15 -20 -1 -2 5 -66
-8 -148 -31 -80 -23 -156 -43 -170 -46 -14 -2 -52 -13 -85 -23 -33 -11 -108
-32 -167 -47 -58 -15 -105 -30 -103 -33 2 -3 -9 -6 -23 -6 -34 -2 -115 -24
-109 -30 2 -3 13 -6 23 -9 11 -2 63 -15 118 -30 54 -15 107 -24 117 -22 12 3
17 1 12 -6 -4 -6 0 -8 10 -4 9 3 17 1 19 -4 2 -6 16 -12 31 -12 15 -1 27 -5
27 -8 0 -4 21 -11 47 -16 45 -10 223 -57 442 -117 52 -14 98 -23 104 -19 5 3
12 1 16 -5 3 -6 78 -29 166 -52 88 -23 201 -53 250 -67 50 -14 99 -25 110 -25
11 0 61 11 110 26 50 14 99 28 110 31 25 6 196 51 375 100 158 43 350 94 470
124 47 12 92 25 100 28 8 3 22 7 30 9 49 9 270 70 275 76 4 3 -17 13 -47 22
-29 8 -78 22 -108 31 -30 9 -62 17 -70 19 -8 2 -22 5 -30 8 -8 3 -67 20 -130
37 -63 17 -189 51 -280 77 -90 25 -179 46 -196 47 -18 1 -30 5 -28 8 2 3 -103
34 -234 69 -130 34 -263 71 -296 81 -32 11 -59 19 -60 18 0 0 -37 -12 -81 -25z
m147 -38 c29 -8 95 -26 147 -41 52 -14 103 -24 114 -21 10 2 16 2 13 -1 -9 -9
64 -32 80 -26 8 3 14 1 14 -5 0 -5 21 -14 48 -20 26 -5 103 -26 172 -45 69
-20 186 -52 260 -72 74 -20 155 -42 180 -49 25 -7 83 -24 130 -36 47 -12 91
-24 99 -27 29 -8 33 -7 -359 -108 -52 -14 -120 -32 -150 -41 -30 -8 -98 -26
-150 -39 -52 -13 -96 -29 -98 -35 -2 -5 -8 -8 -13 -5 -5 4 -131 -26 -281 -66
l-272 -72 -75 21 c-42 12 -128 36 -191 53 -63 18 -140 38 -170 45 -30 7 -163
42 -295 78 -132 37 -248 65 -258 62 -9 -2 -15 0 -11 5 3 5 -4 10 -15 10 -23 2
-29 3 -51 12 -31 12 -216 59 -232 59 -9 0 -23 7 -30 16 -7 9 -8 13 -3 10 10
-6 78 10 270 64 44 12 82 24 85 27 3 4 19 7 35 9 17 2 68 14 114 28 46 13 89
24 97 24 8 0 14 5 14 11 0 5 4 7 10 4 5 -3 27 -1 47 5 21 6 94 26 163 45 69
19 141 39 160 45 120 35 318 88 332 89 9 0 41 -5 70 -13z m593 -144 c-3 -3
-11 0 -18 7 -9 10 -8 11 6 5 10 -3 15 -9 12 -12z m-1825 -142 c0 -5 -5 -10
-11 -10 -5 0 -7 5 -4 10 3 6 8 10 11 10 2 0 4 -4 4 -10z m2557 -57 c3 -7 -4
-9 -16 -6 -12 3 -18 9 -15 15 7 11 26 6 31 -9z m-2782 -3 c3 -5 1 -10 -4 -10
-6 0 -11 5 -11 10 0 6 2 10 4 10 3 0 8 -4 11 -10z m32 -12 c2 -17 0 -19 -7 -8
-5 8 -6 18 -4 22 8 12 10 10 11 -14z"/>
<path d="M1476 741 c-3 -4 -31 -13 -63 -20 -92 -21 -93 -23 -93 -178 0 -131 0
-133 23 -134 l22 0 -23 -11 c-22 -11 -23 -16 -20 -112 3 -95 4 -101 23 -98 17
2 17 1 5 -8 -24 -16 2 -29 110 -55 42 -10 57 18 62 113 l3 82 -41 0 -42 0 4
-42 c3 -24 6 -53 8 -65 3 -20 2 -21 -18 -8 -11 8 -28 15 -37 15 -16 0 -17 18
-16 207 2 199 3 208 22 212 11 2 23 8 27 14 11 18 21 -18 16 -58 -4 -35 -4
-35 37 -35 l40 0 -3 76 c-3 58 -8 80 -22 94 -11 11 -21 16 -24 11z m-1 -41 c3
-5 -1 -10 -10 -10 -9 0 -13 -4 -10 -10 3 -5 1 -10 -4 -10 -13 0 -13 3 -5 24 7
18 20 21 29 6z m-68 -27 c-9 -2 -15 -8 -12 -13 3 -4 -3 -7 -12 -6 -10 2 -21
-2 -25 -8 -5 -7 -8 -3 -8 9 0 16 7 20 38 21 20 1 29 0 19 -3z m-47 -53 c0 -5
-4 -10 -9 -10 -6 0 -13 5 -16 10 -3 6 1 10 9 10 9 0 16 -4 16 -10z m133 -4 c4
-10 1 -13 -9 -9 -15 6 -19 23 -5 23 5 0 11 -7 14 -14z m-128 -26 c3 -5 1 -10
-4 -10 -6 0 -11 5 -11 10 0 6 2 10 4 10 3 0 8 -4 11 -10z m5 -57 c0 -14 -19
-38 -25 -32 -8 8 5 39 16 39 5 0 9 -3 9 -7z m-14 -69 c-3 -9 -6 -18 -6 -20 0
-2 -5 -4 -11 -4 -8 0 -9 4 0 13 6 8 8 17 4 20 -3 4 -1 7 6 7 8 0 11 -6 7 -16z
m3 -220 c-6 -8 -17 -14 -23 -13 -7 0 -6 2 2 6 6 2 12 11 12 19 0 9 5 12 10 9
8 -5 7 -11 -1 -21z m121 -69 c0 -8 -7 -15 -16 -15 -14 0 -14 3 -4 15 7 8 14
15 16 15 2 0 4 -7 4 -15z m-46 -10 c-3 -8 -12 -11 -20 -8 -20 7 -17 18 5 20
13 1 18 -3 15 -12z"/>
<path d="M1577 723 c-15 -15 -7 -43 13 -43 11 0 20 -5 20 -11 0 -6 -9 -8 -21
-4 -15 5 -20 3 -17 -6 3 -8 20 -15 39 -17 l34 -3 -2 -97 c-2 -53 -4 -165 -5
-248 l-3 -151 35 9 35 9 -2 192 c-2 106 -4 213 -6 239 -3 40 -2 44 10 32 8 -8
18 -14 23 -14 5 0 15 -3 23 -6 12 -4 15 3 14 37 l-2 42 -90 23 c-50 13 -90 24
-91 24 0 0 -4 -3 -7 -7z m83 -43 c0 -5 -2 -10 -4 -10 -3 0 -8 5 -11 10 -3 6
-1 10 4 10 6 0 11 -4 11 -10z m30 -19 c0 -5 -7 -11 -14 -14 -10 -4 -13 -1 -9
9 6 15 23 19 23 5z m-10 -121 c0 -5 -4 -10 -10 -10 -5 0 -10 5 -10 10 0 6 5
10 10 10 6 0 10 -4 10 -10z m-10 -24 c0 -3 -4 -8 -10 -11 -5 -3 -10 -1 -10 4
0 6 5 11 10 11 6 0 10 -2 10 -4z m0 -76 c0 -5 -5 -10 -11 -10 -5 0 -7 5 -4 10
3 6 8 10 11 10 2 0 4 -4 4 -10z m12 -172 c-6 -6 -15 -8 -19 -4 -4 4 -1 11 7
16 19 12 27 3 12 -12z"/>
<path d="M1212 669 l-33 -10 3 -119 c3 -108 1 -118 -14 -117 -10 1 -18 7 -18
15 0 7 5 10 11 6 8 -4 9 1 4 17 -20 71 -25 88 -37 132 -11 41 -16 47 -33 43
-11 -3 -27 -6 -35 -6 -13 0 -15 -28 -13 -196 l1 -197 34 -11 33 -12 -2 81 c-1
44 -2 85 -3 92 0 7 -7 10 -17 7 -16 -5 -16 -4 -2 8 9 7 17 17 17 22 1 6 8 11
17 12 8 1 12 -2 9 -8 -4 -6 0 -14 7 -19 9 -6 10 -9 2 -9 -8 0 -9 -9 -3 -30 5
-17 9 -33 8 -35 0 -3 8 -34 17 -70 14 -50 22 -65 40 -69 13 -3 31 -9 41 -13
11 -4 15 -3 10 5 -8 14 -9 453 0 475 7 19 3 19 -44 6z m-98 -106 c-8 -9 -18
-12 -22 -8 -4 4 -1 10 6 12 6 3 10 9 7 14 -4 5 1 6 9 3 14 -5 14 -8 0 -21z
m116 -17 c0 -2 -7 -7 -16 -10 -8 -3 -12 -2 -9 4 6 10 25 14 25 6z m-122 -57
c0 -39 -31 -89 -42 -70 -4 5 3 16 14 24 22 16 17 29 -8 20 -10 -4 -6 3 8 15
14 12 19 21 13 22 -7 0 -13 9 -13 20 0 13 5 18 14 14 10 -4 15 -20 14 -45z
m32 -29 c0 -5 -4 -10 -10 -10 -5 0 -10 5 -10 10 0 6 5 10 10 10 6 0 10 -4 10
-10z m74 -45 c-4 -8 -10 -15 -15 -15 -4 0 -6 7 -3 15 4 8 10 15 15 15 4 0 6
-7 3 -15z m-29 -34 c-6 -5 -25 10 -25 20 0 5 6 4 14 -3 8 -7 12 -15 11 -17z
m25 -58 c0 -7 8 -17 18 -23 16 -11 15 -11 -2 -5 -11 3 -23 0 -28 -7 -5 -8 -6
-2 -2 15 5 20 2 27 -9 27 -9 0 -14 7 -12 18 2 9 4 19 4 21 2 9 30 -34 31 -46z
m-110 -39 c0 -2 -7 -4 -15 -4 -8 0 -15 4 -15 10 0 5 7 7 15 4 8 -4 15 -8 15
-10z"/>
<path d="M1819 652 c15 -28 15 -416 0 -444 -10 -18 -9 -20 7 -14 11 4 31 10
45 13 l27 5 0 218 1 218 -27 5 c-15 3 -35 9 -46 13 -16 6 -17 4 -7 -14z m61
-222 c0 -5 -4 -10 -10 -10 -5 0 -10 5 -10 10 0 6 5 10 10 10 6 0 10 -4 10 -10z
m-15 -50 c3 -5 1 -10 -4 -10 -6 0 -11 5 -11 10 0 6 2 10 4 10 3 0 8 -4 11 -10z"/>
<path d="M945 598 c-16 -6 -35 -12 -40 -13 -6 -2 -8 -31 -5 -76 3 -41 4 -98 2
-127 -3 -50 -4 -52 -25 -40 -12 6 -23 11 -24 10 -20 -13 -24 10 -21 107 3 101
2 109 -14 100 -9 -5 -25 -9 -35 -9 -17 0 -18 -8 -15 -107 4 -128 8 -133 104
-161 95 -28 97 -25 97 155 1 78 4 148 7 157 3 9 5 16 3 15 -2 -1 -17 -6 -34
-11z m-15 -58 c0 -5 -5 -10 -11 -10 -5 0 -7 5 -4 10 3 6 8 10 11 10 2 0 4 -4
4 -10z m-125 -10 c-3 -5 -12 -10 -18 -10 -7 0 -6 4 3 10 19 12 23 12 15 0z
m125 -145 c0 -8 -2 -15 -4 -15 -2 0 -6 7 -10 15 -3 8 -1 15 4 15 6 0 10 -7 10
-15z m-4 -82 c-11 -11 -17 4 -9 23 7 18 8 18 11 1 2 -10 1 -21 -2 -24z"/>
<path d="M1981 596 c-8 -9 -12 -69 -14 -167 -2 -142 0 -155 18 -170 18 -15 24
-15 82 1 100 28 103 32 103 172 l0 118 -32 21 c-18 11 -43 18 -55 16 -12 -2
-20 -1 -18 3 3 4 -9 10 -26 14 -43 8 -45 8 -58 -8z m69 -28 c0 -5 -4 -6 -10
-3 -5 3 -10 1 -10 -4 0 -15 -17 -14 -23 2 -3 7 5 13 19 13 13 1 24 -2 24 -8z
m78 -43 c-3 -3 -9 2 -12 12 -6 14 -5 15 5 6 7 -7 10 -15 7 -18z m-48 5 c16 0
18 -11 19 -99 l2 -99 -32 -11 c-18 -6 -34 -11 -35 -11 -2 0 -4 52 -4 116 0
102 2 115 16 110 9 -3 24 -6 34 -6z m-70 -100 c0 -5 -4 -10 -10 -10 -5 0 -10
5 -10 10 0 6 5 10 10 10 6 0 10 -4 10 -10z m10 -142 c0 -5 -4 -8 -10 -8 -5 0
-10 10 -10 23 0 18 2 19 10 7 5 -8 10 -18 10 -22z m88 7 c-3 -3 -9 2 -12 12
-6 14 -5 15 5 6 7 -7 10 -15 7 -18z"/>
<path d="M2232 426 l-1 -124 38 10 37 9 -4 62 c-3 38 -10 65 -18 70 -8 4 -14
19 -14 33 0 15 4 23 10 19 6 -4 8 -15 5 -26 -4 -10 -2 -19 4 -19 8 0 77 -94
86 -117 1 -1 17 3 37 9 34 10 35 12 25 39 -8 19 -8 38 0 64 12 39 13 38 -54
59 -20 6 -21 4 -16 -36 l5 -43 -33 47 c-29 40 -69 68 -99 68 -4 0 -8 -56 -8
-124z m98 50 c0 -11 -19 -15 -25 -6 -3 5 1 10 9 10 9 0 16 -2 16 -4z m70 -66
c0 -5 -7 -10 -15 -10 -8 0 -15 5 -15 10 0 6 7 10 15 10 8 0 15 -4 15 -10z"/>
<path d="M665 517 c-29 -11 -30 -14 -27 -63 3 -49 1 -52 -23 -57 -19 -3 -23
-1 -16 6 18 18 12 27 -19 27 -25 0 -30 -4 -30 -24 0 -29 12 -39 74 -60 48 -15
50 -15 64 5 14 21 23 99 11 99 -9 0 2 53 14 68 12 15 -6 15 -48 -1z m15 -47
c0 -5 -8 -10 -17 -10 -15 0 -16 2 -3 10 19 12 20 12 20 0z m10 -30 c0 -5 -4
-10 -10 -10 -5 0 -10 5 -10 10 0 6 5 10 10 10 6 0 10 -4 10 -10z m-14 -49 c-3
-5 -16 -11 -28 -14 -22 -6 -22 -5 -4 8 22 17 40 20 32 6z"/>
<path d="M398 446 c-25 -6 -49 -14 -52 -17 -10 -10 94 -31 119 -25 30 8 33 31
6 46 -11 5 -21 9 -23 9 -2 -1 -24 -6 -50 -13z"/>
<path d="M2545 444 c-20 -15 -20 -15 -1 -30 24 -17 36 -17 101 0 49 13 49 14
20 21 -16 4 -43 11 -59 16 -37 11 -37 11 -61 -7z"/>
</g>
</svg>
